# xmcd
#
# Track frame offsets:
#	183
#	17190
#	35275
#	63495
#
# Disc length: 963 seconds
#
# Revision: 4
# Processed by: cddbd v1.5.1PL0 Copyright (c) Steve Scherf et al.
# Submitted via: dBpowerAMP V4.0
#
DISCID=2c03c104
DTITLE=Rupaul - Supermodel
DYEAR=1993
DGENRE=Dance
TTITLE0=Supermodel (You Better Work) (Ready To Wear 7inch Mix)
TTITLE1=Supermodel (You Better Work) (Single Mix)
TTITLE2=Supermodel (You Better Work) (Couture Mix)
TTITLE3=Supermodel (You Better Work) (Wanda In Your Face Mix)
EXTD=
EXTT0=
EXTT1=
EXTT2=
EXTT3=
PLAYORDER=
